<svg xmlns:xlink="http://www.w3.org/1999/xlink"  xmlns="http://www.w3.org/2000/svg" height="24" viewBox="0 0 24 24" width="24" focusable="false" aria-hidden="true" style="pointer-events: none; display: inherit; width: 100%; height: 100%;"><path d="M14 20c0-2.21 1.79-4 4-4s4 1.79 4 4h-8zm4-4c-1.1 0-2-.9-2-2s.9-2 2-2 2 .9 2 2-.9 2-2 2zm-3-8c0-2.21-1.79-4-4-4S7 5.79 7 8c0 1.96 1.42 3.59 3.28 3.93C4.77 12.21 2 15.76 2 20h10.02L12 19H3.06c.38-3.11 2.61-6.1 7.94-6.1.62 0 1.19.05 1.73.13l.84-.84c-.58-.13-1.19-.23-1.85-.26A4.004 4.004 0 0015 8zm-4 3c-1.65 0-3-1.35-3-3s1.35-3 3-3 3 1.35 3 3-1.35 3-3 3z"></path></svg>