<svg xmlns:xlink="http://www.w3.org/1999/xlink"  xmlns="http://www.w3.org/2000/svg" height="24" style="pointer-events: none; display: inherit; width: 100%; height: 100%;" viewBox="0 0 24 24" width="24" focusable="false" aria-hidden="true"><path d="M12.73 11.93A4.003 4.003 0 0016 8c0-2.21-1.79-4-4-4S8 5.79 8 8c0 1.96 1.41 3.58 3.27 3.93C5.1 12.2 2 15.84 2 20h20c0-4.16-3.1-7.8-9.27-8.07zM9 8c0-1.65 1.35-3 3-3s3 1.35 3 3-1.35 3-3 3-3-1.35-3-3zm3 4.9c5.98 0 8.48 3.09 8.93 6.1H3.07c.45-3.01 2.95-6.1 8.93-6.1z"></path></svg>